<?xml version="1.0" encoding="utf-8"?>
<!-- Generator: Adobe Illustrator 24.3.0, SVG Export Plug-In . SVG Version: 6.00 Build 0)  -->
<svg version="1.1" id="Layer_1" xmlns="http://www.w3.org/2000/svg" xmlns:xlink="http://www.w3.org/1999/xlink" x="0px" y="0px"
	 viewBox="0 0 512 512" style="enable-background:new 0 0 512 512;" xml:space="preserve">
<g id="XMLID_1_">
	<path id="XMLID_2_" d="M248.81,242.4c-4.53-3.07-9.8-4.68-15.5-4.68c-14.77,0-26.91,11.85-26.91,26.76
		c0,14.77,12.14,26.91,26.91,26.91c5.85,0,11.11-1.75,15.5-4.68v3.36h12.72v-52.06h-12.72V242.4z M233.75,279.25
		c-8.04,0-14.92-6.73-14.92-14.77c0-8.04,6.87-14.92,14.92-14.92c8.19,0,15.06,6.87,15.06,14.92
		C248.81,272.53,242.08,279.25,233.75,279.25z"/>
	<path id="XMLID_3_" d="M308.48,242.4c-4.53-3.07-9.65-4.68-15.21-4.68c-14.92,0-27.06,11.85-27.06,26.76
		c0,14.77,12.14,26.91,27.06,26.91c5.7,0,10.82-1.75,15.21-4.68v3.36h12.87v-69.61h-12.87V242.4z M293.42,279.25
		c-8.19,0-15.06-6.73-15.06-14.77c0-8.04,6.87-14.92,15.06-14.92c8.04,0,14.92,6.87,14.92,14.92
		C308.48,272.53,301.61,279.25,293.42,279.25z"/>
	<path id="XMLID_15_" d="M498.74,259.51c-8.48-2.19-19.16-1.9-19.16-7.17c0.29-3.51,3.8-4.68,8.92-4.68c7.75,0,8.19,4.24,8.34,7.02
		h13.02c-0.88-10.09-9.07-16.96-22.08-16.96c-13.31,0-21.5,7.31-21.5,16.67c0,5.41,2.92,10.24,7.17,12.58
		c3.51,1.75,8.04,2.78,13.6,3.66s10.68,1.17,10.97,5.26c0,2.63-2.78,6-8.63,6c-8.77-0.15-10.82-4.97-10.82-8.19h-13.45
		c0.58,10.53,9.07,17.84,23.55,17.84c12.87,0,23.4-4.97,23.4-17.84C511.9,266.53,506.79,261.56,498.74,259.51z"/>
	<path id="XMLID_4_" d="M388.04,242.4c-4.39-3.07-9.65-4.68-15.5-4.68c-14.77,0-26.91,11.85-26.91,26.76
		c0,14.77,12.14,26.91,26.91,26.91c5.85,0,11.11-1.75,15.5-4.68v3.36h12.72v-69.61h-12.72V242.4z M372.97,279.25
		c-7.9,0-14.77-6.73-14.77-14.77c0-8.04,6.87-14.92,14.77-14.92c8.19,0,15.06,6.87,15.06,14.92
		C388.04,272.53,381.16,279.25,372.97,279.25z"/>
	<path id="XMLID_5_" d="M447.26,242.4c-4.24-3.07-9.65-4.68-15.21-4.68c-14.77,0-26.91,11.85-26.91,26.76
		c0,14.77,12.14,26.91,26.91,26.91c5.85,0,10.97-1.75,15.21-4.68v3.36h12.87v-52.06h-12.87V242.4z M432.49,279.25
		c-8.04,0-14.92-6.73-14.92-14.77c0-8.04,6.87-14.92,14.92-14.92s14.77,6.87,14.77,14.92C447.26,272.53,440.54,279.25,432.49,279.25
		z"/>
	<polygon id="XMLID_10_" points="327.64,220.61 327.64,220.61 327.64,233.48 340.51,233.48 340.51,220.61 	"/>
	<rect id="XMLID_9_" x="327.64" y="238.3" width="12.87" height="52.06"/>
	<path id="XMLID_6_" d="M503.42,221.78c-3.66,0-6.58,2.92-6.58,6.73c0,3.66,2.92,6.58,6.58,6.58s6.73-2.92,6.73-6.58
		C510.3,224.7,507.08,221.78,503.42,221.78z M503.42,234.21c-3.07,0-5.7-2.63-5.7-5.7c0-3.07,2.63-5.85,5.7-5.85
		c3.07,0,5.85,2.63,5.85,5.85C509.42,231.58,506.64,234.21,503.42,234.21z"/>
	<path id="XMLID_20_" d="M505.03,228.65c0.73-0.29,1.17-0.88,1.17-1.75c0-1.32-1.17-2.05-2.49-2.05h-2.49v7.31h1.17v-2.92h1.61
		c0.88,0,1.17,0.73,1.17,2.05c0,0.44,0,0.73,0.29,0.88h1.17c-0.29-0.44-0.29-1.17-0.29-2.05
		C506.2,228.8,505.47,228.65,505.03,228.65z M503.42,227.92h-1.17v-2.05h1.61c0.73,0,1.17,0.44,1.17,1.17
		C505.03,227.77,504.15,227.92,503.42,227.92z"/>
	<rect id="XMLID_23_" x="0.05" y="280.28" width="189.68" height="11.11"/>
	<rect id="XMLID_24_" x="0.05" y="259.22" width="189.68" height="11.11"/>
	<rect id="XMLID_25_" x="0.05" y="238.3" width="189.68" height="11.11"/>
</g>
</svg>
